SplineFontDB: 3.2
FontName: happy_virus
FullName: happy virus
FamilyName: happy_virus
Weight: Regular
Copyright: Copyright (c) 1980, Anonymous
UComments: "1980-1-1: Created with FontForge (http://fontforge.org)"
Version: 001.000
ItalicAngle: 0
UnderlinePosition: -16
UnderlineWidth: 8
Ascent: 83
Descent: 81
InvalidEm: 0
LayerCount: 2
Layer: 0 0 "Back" 1
Layer: 1 0 "Fore" 0
XUID: [1021 473 292571826 5543819]
OS2Version: 0
OS2_WeightWidthSlopeOnly: 0
OS2_UseTypoMetrics: 1
CreationTime: 315532800
ModificationTime: 1650917512
OS2TypoAscent: 0
OS2TypoAOffset: 1
OS2TypoDescent: 0
OS2TypoDOffset: 1
OS2TypoLinegap: 0
OS2WinAscent: 0
OS2WinAOffset: 1
OS2WinDescent: 0
OS2WinDOffset: 1
HheadAscent: 0
HheadAOffset: 1
HheadDescent: 0
HheadDOffset: 1
OS2Vendor: 'PfEd'
Lookup: 258 0 0 "kern" { "kern-1" [24,0,2] } ['kern' ('DFLT' <'dflt' > 'latn' <'dflt' > ) ]
MarkAttachClasses: 1
DEI: 91125
KernClass2: 12 9 "kern-1"
 1 f
 1 s
 1 r
 5 i k x
 3 v w
 1 z
 11 b e h m o p
 1 a
 1 t
 3 c u
 1 n
 25 a d e g m o p q r v w x y
 1 s
 1 i
 1 j
 1 z
 1 t
 3 c u
 1 n
 0 {} 0 {} 0 {} 0 {} 0 {} 0 {} 0 {} 0 {} 0 {} 0 {} -16 {} -16 {} -8 {} -30 {} -20 {} -10 {} -16 {} -16 {} 0 {} -8 {} -25 {} 0 {} -18 {} 0 {} 0 {} -4 {} -8 {} 0 {} 0 {} -20 {} 0 {} -14 {} 0 {} 0 {} -4 {} -8 {} 0 {} 0 {} 0 {} 0 {} -18 {} 0 {} 0 {} 0 {} 0 {} 0 {} 0 {} -8 {} 0 {} -21 {} 0 {} 0 {} -4 {} -4 {} 0 {} 0 {} 0 {} 0 {} -15 {} -25 {} -10 {} -4 {} 0 {} 0 {} 0 {} -8 {} 0 {} -18 {} -4 {} -8 {} 0 {} 0 {} 0 {} 0 {} 0 {} 0 {} -18 {} -4 {} -8 {} 0 {} 0 {} 0 {} -4 {} -10 {} 0 {} -18 {} 0 {} 0 {} -4 {} -8 {} 0 {} 0 {} 0 {} 0 {} -18 {} 0 {} 0 {} 0 {} 0 {} 0 {} 0 {} 0 {} 0 {} -18 {} -8 {} -8 {} 0 {} 0 {}
Encoding: ISO8859-1
UnicodeInterp: none
NameList: AGL For New Fonts
DisplaySize: -48
AntiAlias: 1
FitToEm: 0
WinInfo: 0 38 17
BeginPrivate: 0
EndPrivate
BeginChars: 256 27

StartChar: a
Encoding: 97 97 0
Width: 54
VWidth: 131
Flags: W
LayerCount: 2
Fore
SplineSet
26.58984375 0.6455078125 m 0
 29.89453125 0.6455078125 29.912109375 5.7802734375 26.58984375 5.7802734375 c 0
 15.513671875 5.7802734375 6.5673828125 14.6884765625 6.5673828125 25.6455078125 c 0
 6.5673828125 36.603515625 15.513671875 45.51171875 26.58984375 45.51171875 c 0
 37.6640625 45.51171875 46.611328125 36.603515625 46.611328125 25.6455078125 c 2
 46.611328125 3.212890625 l 2
 46.611328125 -0.091796875 51.74609375 -0.109375 51.74609375 3.212890625 c 2
 51.74609375 25.6455078125 l 2
 51.74609375 39.466796875 40.466796875 50.646484375 26.58984375 50.646484375 c 0
 12.712890625 50.646484375 1.4326171875 39.466796875 1.4326171875 25.6455078125 c 0
 1.4326171875 11.8251953125 12.712890625 0.6455078125 26.58984375 0.6455078125 c 0
EndSplineSet
EndChar

StartChar: b
Encoding: 98 98 1
Width: 53
VWidth: 131
Flags: W
LayerCount: 2
Fore
SplineSet
26.431640625 50.6455078125 m 0
 23.1240234375 50.6455078125 23.107421875 45.5087890625 26.431640625 45.5087890625 c 0
 37.40234375 45.5087890625 46.2939453125 36.6171875 46.2939453125 25.6455078125 c 0
 46.2939453125 14.6748046875 37.40234375 5.783203125 26.431640625 5.783203125 c 0
 15.4599609375 5.783203125 6.568359375 14.6748046875 6.568359375 25.6455078125 c 2
 6.568359375 78.2744140625 l 2
 6.568359375 81.58203125 1.431640625 81.5986328125 1.431640625 78.2744140625 c 2
 1.431640625 25.6455078125 l 2
 1.431640625 11.8408203125 12.6259765625 0.646484375 26.431640625 0.646484375 c 0
 40.236328125 0.646484375 51.4306640625 11.8408203125 51.4306640625 25.6455078125 c 0
 51.4306640625 39.451171875 40.236328125 50.6455078125 26.431640625 50.6455078125 c 0
EndSplineSet
EndChar

StartChar: c
Encoding: 99 99 2
Width: 47
VWidth: 131
Flags: W
LayerCount: 2
Fore
SplineSet
6.5703125 25.642578125 m 0
 6.5703125 42.7890625 28.177734375 52.01953125 40.5 39.6962890625 c 0
 42.826171875 37.3701171875 46.4921875 40.97265625 44.134765625 43.3310546875 c 0
 34.3642578125 53.1015625 18.52734375 53.1015625 8.7568359375 43.3310546875 c 0
 -1.013671875 33.560546875 -1.013671875 17.7236328125 8.7568359375 7.953125 c 0
 18.52734375 -1.8173828125 34.3642578125 -1.8173828125 44.134765625 7.953125 c 0
 46.4609375 10.279296875 42.8583984375 13.9453125 40.5 11.587890625 c 0
 28.193359375 -0.71875 6.5703125 8.4677734375 6.5703125 25.642578125 c 0
EndSplineSet
EndChar

StartChar: d
Encoding: 100 100 3
Width: 53
VWidth: 131
Flags: W
LayerCount: 2
Fore
SplineSet
26.431640625 45.6123046875 m 0
 29.7392578125 45.6123046875 29.755859375 50.7490234375 26.431640625 50.7490234375 c 0
 12.6259765625 50.7490234375 1.431640625 39.5546875 1.431640625 25.7490234375 c 0
 1.431640625 11.9443359375 12.6259765625 0.75 26.431640625 0.75 c 0
 40.236328125 0.75 51.4306640625 11.9443359375 51.4306640625 25.7490234375 c 2
 51.4306640625 78.2744140625 l 2
 51.4306640625 81.58203125 46.2939453125 81.5986328125 46.2939453125 78.2744140625 c 2
 46.2939453125 25.7490234375 l 2
 46.2939453125 14.7783203125 37.40234375 5.88671875 26.431640625 5.88671875 c 0
 15.4599609375 5.88671875 6.568359375 14.7783203125 6.568359375 25.7490234375 c 0
 6.568359375 36.720703125 15.4599609375 45.6123046875 26.431640625 45.6123046875 c 0
EndSplineSet
EndChar

StartChar: e
Encoding: 101 101 4
Width: 53
VWidth: 131
Flags: W
LayerCount: 2
Fore
SplineSet
44.001953125 7.048828125 m 0
 46.4228515625 9.470703125 42.671875 13.28515625 40.21875 10.830078125 c 0
 37.025390625 7.6357421875 32.3408203125 5.0751953125 26.3251953125 5.0751953125 c 0
 15.470703125 5.0751953125 6.6748046875 13.87109375 6.6748046875 24.724609375 c 0
 6.6748046875 35.5791015625 15.470703125 44.375 26.3251953125 44.375 c 0
 36.271484375 44.375 44.4892578125 36.98828125 45.7939453125 27.3994140625 c 1
 26.251953125 27.3994140625 l 2
 22.8076171875 27.3994140625 22.7900390625 22.0498046875 26.251953125 22.0498046875 c 2
 48.6494140625 22.0498046875 l 2
 50.1259765625 22.0498046875 51.32421875 23.248046875 51.32421875 24.724609375 c 0
 51.32421875 38.5302734375 40.1298828125 49.724609375 26.3251953125 49.724609375 c 0
 12.51953125 49.724609375 1.3251953125 38.5302734375 1.3251953125 24.724609375 c 0
 1.3251953125 7.9052734375 18.669921875 -5.6591796875 36.0546875 1.6884765625 c 0
 39.044921875 2.9541015625 41.740234375 4.78515625 44.001953125 7.048828125 c 0
EndSplineSet
EndChar

StartChar: f
Encoding: 102 102 5
Width: 32
VWidth: 131
Flags: W
LayerCount: 2
Fore
SplineSet
27.103515625 75.62890625 m 0
 30.509765625 75.62890625 30.52734375 80.919921875 27.103515625 80.919921875 c 0
 12.8837890625 80.919921875 1.3544921875 69.390625 1.3544921875 55.1708984375 c 2
 1.3544921875 2.6455078125 l 2
 1.3544921875 -0.7607421875 6.6455078125 -0.7783203125 6.6455078125 2.6455078125 c 2
 6.6455078125 55.1708984375 l 2
 6.6455078125 66.470703125 15.8037109375 75.62890625 27.103515625 75.62890625 c 0
EndSplineSet
EndChar

StartChar: g
Encoding: 103 103 6
Width: 55
VWidth: 131
Flags: W
LayerCount: 2
Fore
SplineSet
27.001953125 -75.78125 m 0
 23.595703125 -75.78125 23.578125 -81.072265625 27.001953125 -81.072265625 c 0
 41.3046875 -81.072265625 52.9306640625 -69.55078125 52.9306640625 -55.3046875 c 0
 52.9443359375 -28.5322265625 52.8818359375 -1.8349609375 52.8525390625 24.896484375 c 0
 52.8525390625 39.1162109375 41.3232421875 50.6455078125 27.103515625 50.6455078125 c 0
 12.8837890625 50.6455078125 1.3544921875 39.1162109375 1.3544921875 24.896484375 c 0
 1.3544921875 10.6767578125 12.8837890625 -0.8525390625 27.103515625 -0.8525390625 c 0
 30.509765625 -0.8525390625 30.52734375 4.4384765625 27.103515625 4.4384765625 c 0
 15.8037109375 4.4384765625 6.6455078125 13.5966796875 6.6455078125 24.896484375 c 0
 6.6455078125 36.1962890625 15.8037109375 45.3544921875 27.103515625 45.3544921875 c 0
 38.4033203125 45.3544921875 47.5615234375 36.1962890625 47.5615234375 24.896484375 c 0
 47.58984375 -1.8349609375 47.65234375 -28.53125 47.6396484375 -55.3046875 c 0
 47.6396484375 -66.599609375 38.41796875 -75.78125 27.001953125 -75.78125 c 0
EndSplineSet
EndChar

StartChar: h
Encoding: 104 104 7
Width: 62
VWidth: 131
Flags: W
LayerCount: 2
Fore
SplineSet
51.279296875 41.791015625 m 0
 38.1982421875 54.873046875 16.5712890625 52.0263671875 6.6455078125 37.8974609375 c 1
 6.6455078125 78.2744140625 l 2
 6.6455078125 81.6806640625 1.3544921875 81.6982421875 1.3544921875 78.2744140625 c 2
 1.3544921875 21.0732421875 l 2
 1.3642578125 13.603515625 4.21875 6.134765625 9.9208984375 0.4326171875 c 0
 12.314453125 -1.9619140625 16.0888671875 1.74609375 13.6611328125 4.1728515625 c 0
 4.30859375 13.5263671875 4.30859375 28.697265625 13.6611328125 38.05078125 c 0
 23.0146484375 47.4033203125 38.185546875 47.4033203125 47.5390625 38.05078125 c 0
 56.8916015625 28.697265625 56.8916015625 13.5263671875 47.5390625 4.1728515625 c 0
 45.14453125 1.779296875 48.8525390625 -1.9951171875 51.279296875 0.4326171875 c 0
 62.7021484375 11.8544921875 62.7021484375 30.369140625 51.279296875 41.791015625 c 0
EndSplineSet
EndChar

StartChar: i
Encoding: 105 105 8
Width: 16
VWidth: 131
Flags: W
VStem: 5.34961 5.29102<0.509176 2.64551 48.1035 50.2398>
LayerCount: 2
Fore
SplineSet
5.349609375 2.6455078125 m 2
 5.349609375 -0.7607421875 10.640625 -0.7783203125 10.640625 2.6455078125 c 2
 10.640625 48.103515625 l 2
 10.640625 51.509765625 5.349609375 51.52734375 5.349609375 48.103515625 c 2
 5.349609375 2.6455078125 l 2
EndSplineSet
EndChar

StartChar: j
Encoding: 106 106 9
Width: 32
VWidth: 131
Flags: W
HStem: -80.9268 5.29102<1.86464 13.8457>
VStem: 24.5605 5.29102<-64.9129 -55.1592 48.1035 50.1736>
LayerCount: 2
Fore
SplineSet
4.0009765625 -75.6357421875 m 0
 0.5947265625 -75.6357421875 0.5771484375 -80.9267578125 4.0009765625 -80.9267578125 c 0
 18.3046875 -80.9267578125 29.9296875 -69.404296875 29.9296875 -55.1591796875 c 0
 29.935546875 -20.705078125 29.876953125 13.68359375 29.8515625 48.1064453125 c 0
 29.8486328125 51.5107421875 24.560546875 51.5263671875 24.560546875 48.103515625 c 0
 24.5849609375 13.681640625 24.64453125 -20.7060546875 24.638671875 -55.1591796875 c 0
 24.638671875 -66.453125 15.416015625 -75.6357421875 4.0009765625 -75.6357421875 c 0
EndSplineSet
EndChar

StartChar: k
Encoding: 107 107 10
Width: 54
VWidth: 131
Flags: W
LayerCount: 2
Fore
SplineSet
1.3544921875 2.6455078125 m 2
 1.3544921875 -0.7607421875 6.6455078125 -0.7783203125 6.6455078125 2.6455078125 c 2
 6.6455078125 32.3623046875 l 1
 11.3779296875 26.236328125 18.771484375 22.29296875 27.4150390625 22.572265625 c 0
 38.0185546875 22.138671875 46.478515625 13.4072265625 46.478515625 2.697265625 c 0
 46.478515625 -0.708984375 51.76953125 -0.7265625 51.76953125 2.697265625 c 0
 51.76953125 12.5498046875 46.1103515625 21.0830078125 37.8642578125 25.2197265625 c 1
 46.1103515625 29.357421875 51.76953125 37.890625 51.76953125 47.7421875 c 0
 51.76953125 51.1484375 46.478515625 51.166015625 46.478515625 47.7421875 c 0
 46.478515625 36.82421875 37.763671875 27.880859375 26.5869140625 27.880859375 c 0
 15.5390625 27.880859375 6.6953125 36.7548828125 6.6953125 47.7421875 c 0
 6.6953125 57.818359375 6.6455078125 68.115234375 6.6455078125 78.2744140625 c 0
 6.6455078125 81.6806640625 1.3544921875 81.6982421875 1.3544921875 78.2744140625 c 2
 1.3544921875 2.6455078125 l 2
EndSplineSet
EndChar

StartChar: l
Encoding: 108 108 11
Width: 16
VWidth: 131
Flags: HW
LayerCount: 2
Fore
SplineSet
5.349609375 2.6455078125 m 2
 5.349609375 -0.7607421875 10.640625 -0.7783203125 10.640625 2.6455078125 c 2
 10.640625 78.2744140625 l 2
 10.640625 81.6806640625 5.349609375 81.6982421875 5.349609375 78.2744140625 c 2
 5.349609375 2.6455078125 l 2
EndSplineSet
EndChar

StartChar: m
Encoding: 109 109 12
Width: 115
VWidth: 131
Flags: HW
LayerCount: 2
Fore
SplineSet
57.4921875 33.23046875 m 1
 49.7548828125 50.0693359375 25.4775390625 56.255859375 10.8115234375 41.591796875 c 0
 -0.4697265625 30.30859375 -0.470703125 12.021484375 10.8115234375 0.740234375 c 0
 13.205078125 -1.654296875 16.9794921875 2.0537109375 14.5517578125 4.48046875 c 0
 5.33984375 13.693359375 5.33984375 28.63671875 14.5517578125 37.849609375 c 0
 23.765625 47.0625 38.708984375 47.0625 47.921875 37.8505859375 c 0
 57.125 28.646484375 57.134765625 13.6923828125 47.921875 4.4814453125 c 0
 45.52734375 2.0869140625 49.2353515625 -1.6875 51.662109375 0.7392578125 c 0
 57.26953125 6.3466796875 60.15234375 13.671875 60.1513671875 21.16796875 c 0
 60.1513671875 27.20703125 62.45703125 33.244140625 67.0625 37.8505859375 c 0
 76.275390625 47.0625 91.2177734375 47.0625 100.431640625 37.849609375 c 0
 109.64453125 28.63671875 109.64453125 13.693359375 100.431640625 4.4814453125 c 0
 98.037109375 2.0869140625 101.745117188 -1.6875 104.171875 0.7392578125 c 0
 115.455078125 12.021484375 115.455078125 30.30859375 104.171875 41.591796875 c 0
 89.515625 56.24609375 65.236328125 50.0859375 57.4921875 33.23046875 c 1
EndSplineSet
EndChar

StartChar: n
Encoding: 110 110 13
Width: 61
VWidth: 131
Flags: W
LayerCount: 2
Fore
SplineSet
9.814453125 1.0810546875 m 0
 12.208984375 -1.3134765625 15.9833984375 2.39453125 13.556640625 4.8212890625 c 0
 4.34375 14.03515625 4.34375 28.9775390625 13.5556640625 38.19140625 c 0
 22.76953125 47.404296875 37.712890625 47.404296875 46.92578125 38.1904296875 c 0
 56.1298828125 28.98828125 56.138671875 14.033203125 46.92578125 4.822265625 c 0
 44.53125 2.427734375 48.2392578125 -1.3466796875 50.666015625 1.080078125 c 0
 61.93359375 12.345703125 61.9541015625 30.646484375 50.666015625 41.9326171875 c 0
 39.384765625 53.21484375 21.09765625 53.2138671875 9.8154296875 41.931640625 c 0
 -1.466796875 30.6494140625 -1.466796875 12.36328125 9.814453125 1.0810546875 c 0
EndSplineSet
EndChar

StartChar: o
Encoding: 111 111 14
Width: 53
VWidth: 131
Flags: W
LayerCount: 2
Fore
SplineSet
51.3076171875 24.9765625 m 0
 51.3076171875 39.1337890625 37.7578125 53.912109375 19.8662109375 49.119140625 c 0
 17.07421875 48.3720703125 17.4384765625 43.91796875 20.5517578125 43.91796875 c 0
 22.466796875 43.91796875 24.3828125 44.6826171875 26.3525390625 44.6826171875 c 0
 38.0947265625 44.6826171875 46.015625 34.857421875 46.015625 24.9765625 c 0
 46.015625 13.3916015625 36.2001953125 5.3125 26.3095703125 5.3125 c 0
 11.083984375 5.3125 1.81640625 21.9013671875 9.2880859375 34.8408203125 c 0
 11.0302734375 37.8583984375 6.3828125 40.3916015625 4.7021484375 37.4814453125 c 0
 -4.76953125 21.0771484375 6.962890625 0.0205078125 26.3095703125 0.0205078125 c 0
 38.8408203125 0.0205078125 51.3076171875 10.2451171875 51.3076171875 24.9765625 c 0
EndSplineSet
EndChar

StartChar: p
Encoding: 112 112 15
Width: 55
VWidth: 131
Flags: W
LayerCount: 2
Fore
SplineSet
27.103515625 4.4384765625 m 0
 23.697265625 4.4384765625 23.6796875 -0.8525390625 27.103515625 -0.8525390625 c 0
 41.3232421875 -0.8525390625 52.8525390625 10.6767578125 52.8525390625 24.896484375 c 0
 52.8525390625 39.1162109375 41.3232421875 50.6455078125 27.103515625 50.6455078125 c 0
 12.8837890625 50.6455078125 1.3544921875 39.1162109375 1.3544921875 24.896484375 c 2
 1.3544921875 -78.25390625 l 2
 1.3544921875 -81.66015625 6.6455078125 -81.677734375 6.6455078125 -78.25390625 c 2
 6.6455078125 24.896484375 l 2
 6.6455078125 36.1962890625 15.8037109375 45.3544921875 27.103515625 45.3544921875 c 0
 38.4033203125 45.3544921875 47.5615234375 36.1962890625 47.5615234375 24.896484375 c 0
 47.5615234375 13.5966796875 38.4033203125 4.4384765625 27.103515625 4.4384765625 c 0
EndSplineSet
EndChar

StartChar: q
Encoding: 113 113 16
Width: 55
VWidth: 131
Flags: W
LayerCount: 2
Fore
SplineSet
27.103515625 -0.8525390625 m 0
 30.509765625 -0.8525390625 30.52734375 4.4384765625 27.103515625 4.4384765625 c 0
 15.8037109375 4.4384765625 6.6455078125 13.5966796875 6.6455078125 24.896484375 c 0
 6.6455078125 36.1962890625 15.8037109375 45.3544921875 27.103515625 45.3544921875 c 0
 38.4033203125 45.3544921875 47.5615234375 36.1962890625 47.5615234375 24.896484375 c 2
 47.5615234375 -78.25390625 l 2
 47.5615234375 -81.66015625 52.8525390625 -81.677734375 52.8525390625 -78.25390625 c 2
 52.8525390625 24.896484375 l 2
 52.8525390625 39.1162109375 41.3232421875 50.6455078125 27.103515625 50.6455078125 c 0
 12.8837890625 50.6455078125 1.3544921875 39.1162109375 1.3544921875 24.896484375 c 0
 1.3544921875 10.6767578125 12.8837890625 -0.8525390625 27.103515625 -0.8525390625 c 0
EndSplineSet
EndChar

StartChar: r
Encoding: 114 114 17
Width: 32
VWidth: 131
Flags: W
LayerCount: 2
Fore
SplineSet
27.283203125 45.3544921875 m 0
 30.689453125 45.3544921875 30.70703125 50.6455078125 27.283203125 50.6455078125 c 0
 12.98046875 50.6455078125 1.3544921875 39.123046875 1.3544921875 24.8779296875 c 2
 1.3544921875 2.7958984375 l 2
 1.3544921875 -0.6103515625 6.6455078125 -0.6279296875 6.6455078125 2.7958984375 c 2
 6.6455078125 24.8779296875 l 2
 6.6455078125 36.171875 15.869140625 45.3544921875 27.283203125 45.3544921875 c 0
EndSplineSet
EndChar

StartChar: s
Encoding: 115 115 18
Width: 54
VWidth: 131
Flags: W
LayerCount: 2
Fore
SplineSet
23.9443359375 25 m 0
 23.9443359375 14.0859375 15.0322265625 5.212890625 4 5.212890625 c 0
 0.59375 5.212890625 0.576171875 -0.078125 4 -0.078125 c 0
 17.9189453125 -0.078125 29.2353515625 11.134765625 29.2353515625 25 c 0
 29.2353515625 35.9140625 38.146484375 44.787109375 49.1787109375 44.787109375 c 0
 52.5849609375 44.787109375 52.6025390625 50.078125 49.1787109375 50.078125 c 0
 35.259765625 50.078125 23.9443359375 38.865234375 23.9443359375 25 c 0
EndSplineSet
EndChar

StartChar: t
Encoding: 116 116 19
Width: 37
VWidth: 131
Flags: W
LayerCount: 2
Fore
SplineSet
20.921875 78.2744140625 m 2
 20.921875 81.6806640625 15.630859375 81.6982421875 15.630859375 78.2744140625 c 2
 15.630859375 50.7490234375 l 1
 4 50.7490234375 l 2
 0.59375 50.7490234375 0.576171875 45.4580078125 4 45.4580078125 c 2
 15.630859375 45.4580078125 l 1
 15.630859375 2.8037109375 l 2
 15.630859375 -0.6025390625 20.921875 -0.6201171875 20.921875 2.8037109375 c 2
 20.921875 45.4580078125 l 1
 32.552734375 45.4580078125 l 2
 35.958984375 45.4580078125 35.9765625 50.7490234375 32.552734375 50.7490234375 c 2
 20.921875 50.7490234375 l 1
 20.921875 78.2744140625 l 2
EndSplineSet
EndChar

StartChar: u
Encoding: 117 117 20
Width: 62
VWidth: 131
Flags: W
LayerCount: 2
Fore
SplineSet
13.6611328125 45.8271484375 m 0
 16.0556640625 48.220703125 12.34765625 51.9951171875 9.9208984375 49.5673828125 c 0
 -1.501953125 38.1455078125 -1.501953125 19.630859375 9.9208984375 8.208984375 c 0
 21.3427734375 -3.2138671875 39.857421875 -3.2138671875 51.2802734375 8.208984375 c 0
 62.6923828125 19.62109375 62.7021484375 38.146484375 51.2802734375 49.5673828125 c 0
 48.88671875 51.9619140625 45.1123046875 48.25390625 47.5400390625 45.8271484375 c 0
 56.8798828125 36.486328125 56.896484375 21.3056640625 47.5400390625 11.94921875 c 0
 38.185546875 2.5966796875 23.0146484375 2.5966796875 13.6611328125 11.94921875 c 0
 4.30859375 21.302734375 4.30859375 36.4736328125 13.6611328125 45.8271484375 c 0
EndSplineSet
EndChar

StartChar: v
Encoding: 118 118 21
Width: 52
VWidth: 131
Flags: W
LayerCount: 2
Fore
SplineSet
6.3955078125 48.8564453125 m 2
 4.9990234375 51.8212890625 0.095703125 49.8115234375 1.6044921875 46.6064453125 c 2
 23.015625 1.142578125 l 2
 23.9404296875 -0.8203125 26.853515625 -0.8359375 27.796875 1.1220703125 c 2
 49.68359375 46.5859375 l 2
 51.2001953125 49.7373046875 46.37109375 51.90625 44.912109375 48.876953125 c 2
 25.4375 8.4228515625 l 1
 6.3955078125 48.8564453125 l 2
EndSplineSet
EndChar

StartChar: w
Encoding: 119 119 22
Width: 115
VWidth: 131
Flags: HW
LayerCount: 2
Fore
SplineSet
57.3134765625 16.76953125 m 1
 65.0498046875 -0.0693359375 89.3271484375 -6.255859375 103.993164062 8.408203125 c 0
 115.276367188 19.69140625 115.276367188 37.978515625 103.993164062 49.2607421875 c 0
 101.598632812 51.654296875 97.8251953125 47.9462890625 100.252929688 45.5185546875 c 0
 109.465820312 36.306640625 109.465820312 21.36328125 100.252929688 12.150390625 c 0
 91.0390625 2.9375 76.0966796875 2.9375 66.8837890625 12.1494140625 c 0
 57.6796875 21.35546875 57.671875 36.3076171875 66.8828125 45.51953125 c 0
 69.27734375 47.9130859375 65.5693359375 51.6875 63.142578125 49.259765625 c 0
 57.537109375 43.6552734375 54.65234375 36.326171875 54.6533203125 28.83203125 c 0
 54.6533203125 22.79296875 52.34765625 16.755859375 47.7421875 12.1494140625 c 0
 38.529296875 2.9375 23.5869140625 2.9375 14.373046875 12.150390625 c 0
 5.16015625 21.36328125 5.16015625 36.306640625 14.373046875 45.5185546875 c 0
 16.767578125 47.9130859375 13.0595703125 51.6875 10.6328125 49.2607421875 c 0
 -0.650390625 37.978515625 -0.650390625 19.69140625 10.6328125 8.408203125 c 0
 25.2890625 -6.24609375 49.568359375 -0.0859375 57.3134765625 16.76953125 c 1
EndSplineSet
EndChar

StartChar: x
Encoding: 120 120 23
Width: 53
VWidth: 131
Flags: W
LayerCount: 2
Fore
SplineSet
48.724609375 0.2890625 m 0
 52.130859375 0.2890625 52.1484375 5.580078125 48.724609375 5.580078125 c 0
 37.12890625 5.580078125 29.3798828125 14.5009765625 29.009765625 26.107421875 c 0
 29.435546875 36.6201171875 38.095703125 45.0126953125 48.724609375 45.0126953125 c 0
 52.130859375 45.0126953125 52.1484375 50.3037109375 48.724609375 50.3037109375 c 0
 38.94921875 50.3037109375 30.4794921875 44.69921875 26.3623046875 36.5283203125 c 1
 22.2451171875 44.69921875 13.775390625 50.3037109375 4 50.3037109375 c 0
 0.59375 50.3037109375 0.576171875 45.0126953125 4 45.0126953125 c 0
 15.595703125 45.0126953125 23.3447265625 36.091796875 23.71484375 24.4853515625 c 0
 23.2890625 13.97265625 14.6279296875 5.580078125 4 5.580078125 c 0
 0.59375 5.580078125 0.576171875 0.2890625 4 0.2890625 c 0
 13.775390625 0.2890625 22.2451171875 5.8935546875 26.3623046875 14.064453125 c 1
 30.4794921875 5.8935546875 38.94921875 0.2890625 48.724609375 0.2890625 c 0
EndSplineSet
EndChar

StartChar: y
Encoding: 121 121 24
Width: 62
VWidth: 131
Flags: W
LayerCount: 2
Fore
SplineSet
9.9208984375 8.208984375 m 0
 22.9990234375 -4.869140625 44.619140625 -2.029296875 54.548828125 12.09375 c 1
 54.5732421875 -10.3193359375 54.6201171875 -32.708984375 54.607421875 -55.1591796875 c 0
 54.607421875 -66.453125 45.384765625 -75.6357421875 33.9697265625 -75.6357421875 c 0
 30.5634765625 -75.6357421875 30.5458984375 -80.9267578125 33.9697265625 -80.9267578125 c 0
 48.2734375 -80.9267578125 59.8984375 -69.404296875 59.8984375 -55.1591796875 c 0
 59.9111328125 -27.11328125 59.845703125 0.9208984375 59.845703125 28.888671875 c 0
 59.845703125 36.37109375 56.9912109375 43.85546875 51.279296875 49.5673828125 c 0
 48.8857421875 51.9619140625 45.111328125 48.25390625 47.5390625 45.8271484375 c 0
 52.607421875 40.7578125 54.5283203125 34.751953125 54.5283203125 27.775390625 c 0
 53.9599609375 15.470703125 43.2041015625 4.9345703125 30.599609375 4.9345703125 c 0
 24.4677734375 4.9345703125 18.3369140625 7.2734375 13.6611328125 11.94921875 c 0
 4.30859375 21.302734375 4.30859375 36.4736328125 13.6611328125 45.8271484375 c 0
 16.0556640625 48.220703125 12.34765625 51.9951171875 9.9208984375 49.5673828125 c 0
 -1.501953125 38.1455078125 -1.501953125 19.630859375 9.9208984375 8.208984375 c 0
EndSplineSet
EndChar

StartChar: z
Encoding: 122 122 25
Width: 54
VWidth: 131
Flags: W
LayerCount: 2
Fore
SplineSet
23.9443359375 25 m 0
 23.9443359375 11.134765625 35.259765625 -0.078125 49.1787109375 -0.078125 c 0
 52.5849609375 -0.078125 52.6025390625 5.212890625 49.1787109375 5.212890625 c 0
 38.146484375 5.212890625 29.2353515625 14.0859375 29.2353515625 25 c 0
 29.2353515625 38.865234375 17.9189453125 50.078125 4 50.078125 c 0
 0.59375 50.078125 0.576171875 44.787109375 4 44.787109375 c 0
 15.0322265625 44.787109375 23.9443359375 35.9140625 23.9443359375 25 c 0
EndSplineSet
EndChar

